<svg xmlns="http://www.w3.org/2000/svg" width="14" height="14" viewBox="0 0 14 14">
    <g fill="none" fill-rule="evenodd">
        <g fill="#B3B3B3" fill-rule="nonzero">
            <g>
                <g>
                    <path d="M5.95 10.91c-2.509 0-4.55-2.047-4.55-4.562s2.041-4.561 4.55-4.561 4.55 2.046 4.55 4.561-2.041 4.562-4.55 4.562m4.794-1.044c.723-.988 1.156-2.201 1.156-3.518C11.9 3.06 9.23.383 5.95.383 2.67.383 0 3.06 0 6.348c0 3.29 2.67 5.965 5.95 5.965 1.464 0 2.804-.535 3.84-1.418l2.463 2.468c.136.137.316.206.495.206s.358-.07.495-.206c.273-.274.273-.718 0-.992l-2.499-2.505z" transform="translate(-28 -98) translate(16 86) translate(12 12)"/>
                </g>
            </g>
        </g>
    </g>
</svg>
