<svg xmlns="http://www.w3.org/2000/svg" width="18" height="18" viewBox="0 0 18 18">
    <g fill="none" fill-rule="evenodd">
        <g fill="#4D4D4D" fill-rule="nonzero">
            <g>
                <g>
                    <g>
                        <g>
                            <path d="M8.848 5.014c-.113.122-.268.192-.43.195-.163.003-.32-.062-.437-.18L5.318 2.347V13.23c0 .353-.275.64-.613.64-.34 0-.614-.287-.614-.64V2.347L1.428 5.03c-.245.238-.627.227-.86-.023-.232-.251-.229-.65.008-.896L4.27.388 4.278.38l.006-.004c.052-.052.113-.094.18-.124L4.48.245l.016-.005c.062-.024.127-.037.193-.039h.009L4.705.2l.007.001.012.001c.065.003.13.016.191.04l.015.004.014.005.003.002c.066.03.126.072.178.123l.006.004.007.008L8.833 4.11c.244.245.25.65.015.904zm8.591 6.172c-.113-.122-.268-.192-.43-.195-.163-.003-.32.062-.437.18l-2.663 2.682V2.97c0-.353-.275-.64-.614-.64-.338 0-.613.287-.613.64v10.882l-2.663-2.682c-.245-.238-.627-.227-.86.023-.232.251-.229.65.008.896l3.695 3.722.007.008.006.004c.02.02.041.038.064.055l.013.011c.033.024.069.044.106.06l.008.003.011.003c.012.005.025.008.037.012.02.007.04.014.06.019.08.017.162.017.243 0 .023-.006.045-.013.068-.022.01-.003.019-.005.028-.009l.011-.003.008-.003c.038-.016.073-.036.107-.06l.008-.007c.024-.018.047-.038.068-.06l.006-.003.008-.008 3.695-3.722c.117-.117.184-.279.187-.448.003-.17-.059-.334-.172-.456z" transform="translate(-239 -154) translate(41 153) translate(198) translate(0 1) translate(0 .9)"/>
                        </g>
                    </g>
                </g>
            </g>
        </g>
    </g>
</svg>
